<?xml version="1.0" encoding="UTF-8" standalone="no"?>
<svg width="414.4903pt" height="337.99023pt" viewBox="0 0 146.22297 119.23544" version="1.1" id="svg5"
  xml:space="preserve" fill="currentColor" xmlns="http://www.w3.org/2000/svg">
  <defs id="defs2" />
  <g id="layer1" transform="translate(-24.645844,-93.453385)">
    <g id="g51" transform="matrix(10.444504,0,0,8.6876461,-39.791921,20.26973)">
      <path id="path32"
        style="fill:#000000;fill-opacity:1;stroke:none;stroke-width:0.0705611;stroke-linecap:round;stroke-dasharray:none;stroke-opacity:1"
        d="m 7.2527581,11.225813 c -0.809498,0.387676 -1.263153,1.283077 -1.0156701,2.004663 l 2.7909059,8.137453 c 0.2474798,0.721587 1.1006901,0.991173 1.9101891,0.603494 l 4.720482,-2.260699 c 0.409632,-0.196141 0.758819,-0.535511 0.961953,-0.93645 l 3.358513,-6.62888 c 0.421401,-0.83394 0.119966,-1.712839 -0.67387,-1.964793 L 13.956674,8.490927 C 13.574634,8.3702367 13.124108,8.4139554 12.714482,8.6101318 L 8.0330369,10.852132 Z m 8.3960549,-0.331376 a 1.702983,1.9934805 1.708679 0 1 2.213885,1.086318 1.702983,1.9934805 1.708679 0 1 -0.949195,2.601151 1.702983,1.9934805 1.708679 0 1 -2.213882,-1.08632 1.702983,1.9934805 1.708679 0 1 0.949192,-2.601149 z M 8.1204154,14.841014 10.84025,13.538453 a 0.52079168,0.39672775 80.68601 0 1 0.530761,0.313203 0.52079168,0.39672775 80.68601 0 1 -0.196454,0.661536 l -2.7198365,1.302592 a 0.52079168,0.39672775 80.68601 0 1 -0.5307753,-0.31326 0.52079168,0.39672775 80.68601 0 1 0.196468,-0.661482 z m 0.8011836,2.21148 3.974938,-1.903641 a 0.57466936,0.43777063 80.686011 0 1 0.586057,0.344042 0.57466936,0.43777063 80.686011 0 1 -0.217196,0.73144 L 9.2904609,18.128009 A 0.57466936,0.43777063 80.686011 0 1 8.7053344,17.780807 0.57466936,0.43777063 80.686011 0 1 8.9216018,17.052524 Z m 0.8027741,2.251661 4.9817609,-2.385818 a 0.60951755,0.46431722 80.686011 0 1 0.62006,0.365932 0.60951755,0.46431722 80.686011 0 1 -0.228705,0.775127 l -4.981762,2.385819 A 0.60951755,0.46431722 80.686011 0 1 9.4931422,20.077817 0.60951755,0.46431722 80.686011 0 1 9.7243813,19.304193 Z" />
    </g>
  </g>
</svg>